<?xml version="1.0" encoding="UTF-8" standalone="no"?>
<!--https://github.com/FortAwesome/Font-Awesome/issues/10927-->
<!DOCTYPE svg PUBLIC "-//W3C//DTD SVG 20010904//EN" "http://www.w3.org/TR/2001/REC-SVG-20010904/DTD/svg10.dtd">
<svg xmlns="http://www.w3.org/2000/svg" width="512" height="512" viewBox="0 0 512 512">
    <path id="outer-line" fill="#ff9800cc" stroke="white" stroke-width="10"
          d="M 153.60,418.13
           C 101.32,371.19 69.80,302.43 136.32,215.04
             109.12,195.20 79.68,160.96 64.32,117.12
             95.68,114.56 187.20,131.20 195.20,139.52
             190.72,110.40 206.72,40.00 223.36,15.68
             269.44,57.60 301.12,107.84 297.92,160.64
             313.92,138.88 357.44,114.24 385.60,109.12
             385.60,109.12 398.08,136.64 398.08,136.64
             350.40,141.44 329.28,158.08 313.92,171.20
             422.44,190.30 455.04,256.00 446.08,335.36
             433.28,435.20 316.80,455.04 276.80,495.36
             258.42,481.44 195.41,457.39 153.60,418.13 Z
           M 313.93,171.19M 298.01,160.70"/>
    <path id="inner-lines #1" fill="none" stroke="white" stroke-width="20"
          d="M 271.58,232.02
           C 275.19,231.16 280.34,230.44 284.79,230.72M 195.19,139.52
           C 244.76,160.93 271.13,215.04 271.59,232.03
             237.15,244.60 177.05,244.13 136.32,215.04M 276.81,495.36
           C 290.13,452.69 398.93,427.95 398.08,332.37
             397.65,318.72 395.76,248.60 284.80,230.72
             285.32,215.27 298.28,184.40 313.93,171.19M 298.01,160.70
           C 284.16,180.01 271.24,196.07 271.59,232.03"/>
</svg>